<svg id="Capa_1" data-name="Capa 1" xmlns="http://www.w3.org/2000/svg" viewBox="0 0 640 488"><defs><style>.cls-1{fill:#ffeac6;}.cls-2{fill:#f27774;}.cls-10,.cls-11,.cls-16,.cls-3,.cls-4{fill:none;}.cls-11,.cls-16,.cls-3,.cls-4{stroke:#1d1d1b;}.cls-16,.cls-3,.cls-4{stroke-linecap:round;stroke-linejoin:round;stroke-width:3px;}.cls-4{stroke-dasharray:0.49 7.91;}.cls-5,.cls-6,.cls-7{fill:#1d1d1b;}.cls-14,.cls-15,.cls-6{opacity:0.1;}.cls-12,.cls-13,.cls-7{opacity:0.2;}.cls-8,.cls-9{fill:#fff;}.cls-10,.cls-9{stroke:#575756;}.cls-10,.cls-11,.cls-12,.cls-23,.cls-24,.cls-9{stroke-miterlimit:10;}.cls-12,.cls-13,.cls-15{fill:#575756;}.cls-12{stroke:#3c3c3b;}.cls-14{fill:#3c3c3b;}.cls-16{stroke-dasharray:0.5 8;}.cls-17{fill:#bbd6e8;}.cls-18{font-size:18px;}.cls-18,.cls-25{font-family:Stellar-Regular, Stellar;}.cls-19{letter-spacing:-0.01em;}.cls-20{letter-spacing:-0.01em;}.cls-21{letter-spacing:-0.03em;}.cls-22{fill:#5e5e5e;}.cls-23{fill:#d9d9d9;}.cls-23,.cls-24{stroke:#000;}.cls-24{fill:#ececec;}.cls-25{font-size:21px;}.cls-26{letter-spacing:-0.01em;}.cls-27{letter-spacing:-0.08em;}.cls-28{letter-spacing:-0.02em;}.cls-29{letter-spacing:-0.04em;}.cls-30{letter-spacing:-0.03em;}.cls-31{letter-spacing:-0.02em;}</style></defs><title>sobremip</title><rect class="cls-1" width="640" height="488"/><circle class="cls-2" cx="313.94" cy="97.83" r="40.27"/><path class="cls-3" d="M426.16,154.81l-.21.13"/><path class="cls-4" d="M419.18,159c-27.46,15.44-110.72,51.81-213.59-2.43"/><path class="cls-3" d="M202.1,154.7l-.22-.12"/><circle class="cls-5" cx="426" cy="154.88" r="3.38" transform="translate(-15.31 258.35) rotate(-33.18)"/><circle class="cls-5" cx="202.05" cy="154.61" r="3.38" transform="translate(-29.16 260.77) rotate(-62.09)"/><path class="cls-3" d="M201.72,281l.21-.13"/><path class="cls-4" d="M208.71,276.82c27.46-15.44,110.72-51.81,213.59,2.43"/><path class="cls-3" d="M425.79,281.12l.22.12"/><circle class="cls-5" cx="201.89" cy="280.95" r="3.38" transform="translate(-120.83 156.27) rotate(-33.18)"/><circle class="cls-5" cx="425.84" cy="281.21" r="3.38" transform="translate(-22.01 525.85) rotate(-62.09)"/><circle class="cls-2" cx="186.29" cy="366.75" r="40.27"/><path class="cls-6" d="M186.38,388.14l1.4-1.5,2.2,2.5a21.45,21.45,0,0,0-.36-3,6.78,6.78,0,0,0-2.94-.22A2.09,2.09,0,0,0,186.38,388.14Z"/><path class="cls-7" d="M209,355.73s2.26.21,2.37-1-2.21-1.79-3.35-2a6.7,6.7,0,0,0-1.92.42Z"/><path class="cls-7" d="M218.73,358.06l1.13.24.14-7.13s-1.13,0-1.15-.38S218.73,358.06,218.73,358.06Z"/><path class="cls-8" d="M188,384.06a1.3,1.3,0,0,0-.67-.34,1.08,1.08,0,0,0-.81-.62,4.32,4.32,0,0,0-1.44-.09,8,8,0,0,0-1.39-.93,1.27,1.27,0,0,0-1.84,1.44,4.07,4.07,0,0,0-.92,0c-1.08.13-1.92,1.77-.64,2.35,1.11.49,1.63,1.42,2.6,2.08a1,1,0,0,0,.3.13,1.8,1.8,0,0,0,.76,1.72,1.27,1.27,0,0,0,1.72-.45,2.23,2.23,0,0,0,.55-1.52,3,3,0,0,0-.3-1l-.07-.14.06-.08h0a1.77,1.77,0,0,0,.51.1,2.09,2.09,0,0,0,1.58-.86A1.29,1.29,0,0,0,188,384.06Z"/><path class="cls-9" d="M203.6,350.63l-2.38-2.33-4.56,4.49a1.48,1.48,0,0,1-1.73-1.28c-.19-1.39-1.89-3-3.67-1.35-.55.52-1.21,3,1.64,3.46,1,.15,2.17.57,1.6,1.77a41.29,41.29,0,0,1-3.5,4.43l4.05,3.71s1.69.71,2.28-2a1.87,1.87,0,0,1,3.14-1,2,2,0,0,1-.9,3.28c-.83.2-2.46,1-1.52,2.4a24.5,24.5,0,0,0,4.11,3.91l3.65-4.15s1.5-.71,2,1.25,2.82,2.58,4,.78c.65-1,.66-3-2.32-3.42-2-.26-.79-2.11-.69-2.26a36.48,36.48,0,0,1,2.4-2.77"/><path class="cls-9" d="M189.58,386l2.32.88,1.55-3.9s.63-2.47-2.3-1.78a1.6,1.6,0,0,1-2-1.15c-.09-.62.05-2.11,1.51-2.22s1.63,1,2.54,1.38,1.58-.52,1.81-1.29,1.3-3.75,1.3-3.75l-12.79-4.3-1.76,4.53s-.46,2.12,2.31,1.61c2.26-.41,2.45,1.64,2,2.57a1.75,1.75,0,0,1-3.12-.13,1.23,1.23,0,0,0-2.3,0c-.13.4-1.18,3.25-1.18,3.25"/><path class="cls-9" d="M168.07,348.7l.54-1.66,5.08,1.83a1.71,1.71,0,0,1-.36,2.59,2.19,2.19,0,0,0-.07,3.5,2,2,0,0,0,3-2c-.51-1.37-.85-2.8,1.92-2.29a11,11,0,0,1,4.45,1.84l-4.77,14.38L172.58,365a1.38,1.38,0,0,0-1.12,1.84c.44,1.59,0,3.91-2.43,3.37-1.81-.4-2.29-3.14-.11-4.31.51-.28.91-2,.06-2.29-.41-.16-5.22-2.08-5.31-2.05a17.1,17.1,0,0,1,.51-2.05"/><polygon class="cls-9" points="152 347.83 149.11 347.92 148.35 360.39 151.79 359.98 152 347.83"/><polyline class="cls-9" points="138.16 359.09 148.4 359.53 149.08 348.37 138.63 348.11"/><path class="cls-9" d="M151.82,358.07l2.41-.16s3.39,1.07,4.7,1.27c1.15.18,10.28.58,10.76.49s1.75-1,.59-2.06-4.62-1.66-4.74-1.77,2.54-7.15,2.54-7.15-5.83-2.09-6.71-2.08c-5.56,0-6.77,2.57-7.41,2.95a3.67,3.67,0,0,1-2,.43Z"/><path class="cls-10" d="M165.53,355.85s-2.42-.55-3.06-.63"/><path class="cls-9" d="M179.35,401.24l-.1,2.87s11.14.41,11.3,0a11.32,11.32,0,0,0,0-2.39Z"/><polyline class="cls-9" points="190.45 414.35 190.03 404.2 180.04 404.14 179.86 414.18"/><path class="cls-9" d="M176.82,391.74a34,34,0,0,1,3.94,5.43c.44.9.33,4.15.33,4.15l8.2.31-.44-5.37a42.41,42.41,0,0,1,1.19-5.18c.38-.6-.57-5-.47-5.06s-2.16-.59-2.83-.18-.71,1.12-.48,2.48c.27,1.57-1.32,2-2,1.93a2.18,2.18,0,0,1-1.45-1.39"/><path class="cls-9" d="M181.35,392.91a1.11,1.11,0,0,1-1.26.49l-3.48-1.82a.92.92,0,0,1-.27-1.29h0a1,1,0,0,1,1.26-.49l3.48,1.82a1,1,0,0,1,.27,1.29Z"/><path class="cls-9" d="M183.74,388.32a1.12,1.12,0,0,1-1.5.42l-4.56-1.9a1.47,1.47,0,0,1-.54-1.75h0a1.57,1.57,0,0,1,1.8-.54l4.22,2.37a1.06,1.06,0,0,1,.58,1.4Z"/><path class="cls-9" d="M183.12,390.55a1.29,1.29,0,0,1-1.78.54l-4.28-1.55c-.61-.23-1.2-1-1-1.49h0a1.34,1.34,0,0,1,1.51-.7l5,1.86a1,1,0,0,1,.52,1.35Z"/><path class="cls-9" d="M184.32,385.71c-.51.43-.68.48-1.6.12l-3.84-2a1.07,1.07,0,0,1-.31-1.5h0c.17-.65,1.32-.8,1.82-.52l3.7,2.44a1,1,0,0,1,.24,1.42Z"/><line class="cls-11" x1="178.87" y1="383.87" x2="178.82" y2="384.39"/><polygon class="cls-9" points="219.95 360.35 223.18 360.04 222.68 349.13 220.16 348.71 219.95 360.35"/><polyline class="cls-9" points="233.71 349.75 222.7 349.6 223.16 359.5 228.95 359.6 233.24 359.98"/><path class="cls-9" d="M220,358.33a5.06,5.06,0,0,0-2.22,0c-1.13.26-3.33.7-4.14,1a82.12,82.12,0,0,1-10.15.26c-.42-.13-1.77-.3-1.06-1.14a8,8,0,0,1,6.69-2.48l-5.52-5.29s4.88-3.08,8.14-3.35,6.74,3.2,7.19,3.51a2,2,0,0,0,1.19.2Z"/><path class="cls-12" d="M166.53,352.16s-4.07-.87-5.24,1.45c-.88,1.74,3.68,1.63,4,1.72S166.53,352.16,166.53,352.16Z"/><path class="cls-13" d="M177.15,391.95a30.26,30.26,0,0,0,3.09,2.37c.3,0,1.68.17,3.7-1.67.43-.4,2,.83,2.53,1.38s-.53-4.39-.53-4.39-1.69,1.37-2.5.18-.6-.78-.6-.78L178,387.17,176.85,392"/><path class="cls-7" d="M209.87,356.08s2.26.22,2.37-1-2.21-1.79-3.35-2a6.71,6.71,0,0,0-1.92.42Z"/><path class="cls-7" d="M218.73,358.06l1.13.24.14-7.13s-1.13,0-1.15-.38S218.73,358.06,218.73,358.06Z"/><path class="cls-6" d="M223,349.71l.24,4.69s9.51,0,9.87,0c1.07-.12.4-4.64.4-4.64Z"/><path class="cls-6" d="M184.94,401.93c0,1,.71,12.42.71,12.42l5.11-.17-1.06-10.31h.89l-.46-1.95Z"/><path class="cls-14" d="M191.07,352l-.3,5.31s9.66,1.13,9.7.84.32-5.4.32-5.4Z"/><circle class="cls-2" cx="436.45" cy="97.83" r="40.27"/><path class="cls-9" d="M436.65,89.33A86.11,86.11,0,0,1,440.75,81c4.18-6.72,10.83-9.43,17.86-7.6,5.57,1.45,10.35,8.08,11,15a21.68,21.68,0,0,1-3,13.21c-7.11,12.18-17.64,21-28.77,29.28a3.22,3.22,0,0,1-3-.18c-10.52-7.95-20.37-16.59-27.56-27.84-4.39-6.87-5.63-14.07-1.85-21.64,4.57-9.14,15-11.3,22.28-4.14C431.32,80.61,433.75,85.26,436.65,89.33Z"/><path class="cls-15" d="M415.59,73.08a13.58,13.58,0,0,1,12.17,4c3.56,3.49,6,8.13,8.9,12.21,0,0,.5,13.89-1.07,10.27C424.87,74.86,415.59,73.08,415.59,73.08Z"/><path class="cls-15" d="M444.31,76.73a15.14,15.14,0,0,1,14.3-3.32c5.57,1.45,10.35,8.08,11,15a21.68,21.68,0,0,1-3,13.21c-7.11,12.18-17.64,21-28.77,29.28,0,0,19.37-23.62,22-32.91C462.43,89.12,462.07,74.32,444.31,76.73Z"/><line class="cls-16" x1="313.94" y1="156.24" x2="313.94" y2="245.78"/><circle class="cls-5" cx="313.94" cy="156.41" r="3.38"/><rect class="cls-17" x="222" y="199.62" width="207" height="37.73"/><text class="cls-18" transform="translate(233.67 225.32)"><tspan class="cls-19">D</tspan><tspan x="9.95" y="0">E LA I</tspan><tspan class="cls-20" x="48.08" y="0">D</tspan><tspan x="58.03" y="0">EA A LA REALI</tspan><tspan class="cls-21" x="155.91" y="0">D</tspan><tspan x="165.42" y="0">AD</tspan></text><circle class="cls-2" cx="185.93" cy="97.81" r="40.27"/><path class="cls-9" d="M163.11,127.84a9.33,9.33,0,0,1-5.36-3.43,8.18,8.18,0,0,1,1.08-10.8q11.34-11.39,22.73-22.74c1.73-1.73,3.41-3.51,5.21-5.17a3.41,3.41,0,0,0,1.17-3,13.4,13.4,0,0,1,7.31-13.2,12,12,0,0,1,8.09-1.5c.69.12,1.68.63,1.84,1.16a2.86,2.86,0,0,1-.59,2.28,46,46,0,0,1-4.11,4.18c-3,2.76-3.45,4.42,0,7.5.63.56,1.19,1.2,1.8,1.78a3.13,3.13,0,0,0,4.73,0c1.58-1.5,3.09-3.08,4.64-4.61a7.65,7.65,0,0,1,1.2-1,1.73,1.73,0,0,1,2.87,1.39,13.89,13.89,0,0,1-11.17,14.86,8.62,8.62,0,0,1-2.51.24,4.25,4.25,0,0,0-3.8,1.56c-9.13,9.23-18.35,18.38-27.51,27.6a11.78,11.78,0,0,1-5,2.9Zm1.08-3.72a4.23,4.23,0,0,0,4.25-4.2,4.27,4.27,0,1,0-8.55-.09A4.22,4.22,0,0,0,164.19,124.12Z"/><path class="cls-15" d="M201,83.61c1.52,1.45,3.77,3.34,5.29,1.89s3.8-3.64,5.35-5.17a7.65,7.65,0,0,1,1.2-1,1.73,1.73,0,0,1,2.87,1.39,13.89,13.89,0,0,1-11.17,14.86,8.62,8.62,0,0,1-2.51.24,4.25,4.25,0,0,0-3.8,1.56c-9.13,9.23-18.35,18.38-27.51,27.6a11.78,11.78,0,0,1-5,2.9h-2.67c-2.13-.61-3.36-.73-4.68-2.6l2.7-2.36a4.27,4.27,0,0,0,3.06,1.24,4.23,4.23,0,0,0,4.25-4.2,16.3,16.3,0,0,0-1.31-3.11Z"/><path class="cls-22" d="M179.64,88.66,177,91.22,163.66,77.84c-.69-.69-1.38-1.39-2.08-2.08-.54-.53-1.12-1.21-1.89-.39s-.05,1.29.45,1.8q5.37,5.39,10.76,10.76c1.57,1.57,3.17,3.11,4.77,4.68L173.36,95c-1.61-1.66-3.13-3.27-4.69-4.84Q163.49,85,158.29,79.8a6.79,6.79,0,0,1-1.83-7.34,6.54,6.54,0,0,1,5.54-4.6,6.94,6.94,0,0,1,6.24,2.3q5.69,5.73,11.42,11.42c1.16,1.16,2.37,2.27,3.49,3.35l-2.36,2.31-7.5-7.53-7.83-7.83c-.51-.51-1.07-1.15-1.8-.46s-.15,1.35.4,1.9q7.13,7.13,14.26,14.25C178.7,87.94,179.14,88.25,179.64,88.66Z"/><path class="cls-23" d="M192.41,107.36l3.31-3.13c.15.13.45.37.72.64,2,2,4.1,4.06,6.12,6.13a8,8,0,0,0,4.38,2.76,4.79,4.79,0,0,1,2.63,1.89c1.95,2.68,3.73,5.49,5.51,8.29a1.85,1.85,0,0,1-.21,2.52,1.79,1.79,0,0,1-2.57.39c-3-2-6-3.9-8.86-6.07-.85-.65-1.15-2-1.72-3a10.28,10.28,0,0,0-1.29-2.22c-2.36-2.47-4.81-4.86-7.23-7.29C192.94,108,192.69,107.67,192.41,107.36Z"/><circle class="cls-2" cx="436.45" cy="370.42" r="40.27"/><path class="cls-24" d="M405.64,371.05c-.05-18.33,15.93-32.85,34.14-30.59,12.71,1.58,21.64,8.66,25.7,20.82s1.05,23-8,32.11c-1.09,1.09-2.34,2.25-3.77.74s-.21-2.64.91-3.73c13.74-13.43,10.27-35-7-43.59-16.38-8.14-37.13,4.25-37.81,22.54a26.62,26.62,0,0,0,8.2,20.91c1.08,1.06,2,2.22.8,3.57-1.41,1.53-2.66.38-3.78-.68A30.88,30.88,0,0,1,405.64,371.05Z"/><path class="cls-24" d="M454.82,373.62a17.82,17.82,0,0,1-5.53,11.72c-1.07,1-2.24,2-3.59.65s-.45-2.44.64-3.55c4-4.1,5.45-9,3.7-14.5a13.74,13.74,0,0,0-11.24-9.88,14.27,14.27,0,0,0-14.86,7,14.5,14.5,0,0,0,1.68,16.57c1.07,1.21,3.22,2.44,1.22,4.22s-3.26-.34-4.38-1.63a18.46,18.46,0,0,1,19.08-29.82C449.45,356.71,454.86,364,454.82,373.62Z"/><path class="cls-22" d="M446.73,400.6H426.42c.3-3.15,2.09-4.64,8.17-6.74,0-3.55.06-7.17-.06-10.78a2.77,2.77,0,0,0-1.28-1.74c-2.93-1.92-4.25-4.8-3.41-7.76a6.78,6.78,0,0,1,13-.26c.91,3.18-.39,6.11-3.36,8a3.26,3.26,0,0,0-1.37,2.17,82.23,82.23,0,0,0,0,8.89,2.67,2.67,0,0,0,1.49,1.89C442.72,395.41,445.49,396.8,446.73,400.6Z"/><path class="cls-9" d="M317.59,109.51c-1.19.22-2.09-1-3.09-1.46a4.88,4.88,0,0,0-6.92,2.67c-1.39,3.32-1.4,3.19-4.91,3.37-2,.1-2.92-.5-3.52-2.47-1.22-4-4-5.06-7.86-3.24-.78.37-1.07.88-2.18.61a4.16,4.16,0,0,1-1.45-.71c-2.54-1.86-3.53-3.79-1.6-6.93,1.44-2.35-.17-5.2-2.89-6.31-3.35-1.36-3.22-1.37-3.4-4.87-.11-2,.52-2.91,2.48-3.52,4.23-1.31,5.31-4,3.26-7.92-.9-1.72-1-3,.73-4.07a2.85,2.85,0,0,0,.4-.39c2.25-2.25,2.25-2.25,5.21-.92,3.2,1.44,5.88.28,7.18-3,.39-1,.84-2.6,1.51-2.74a13.24,13.24,0,0,1,5.55.05c.66.15,1,1.83,1.41,2.84a4.92,4.92,0,0,0,7.11,2.89,8.12,8.12,0,0,1,1.85-.86,5.28,5.28,0,0,1,1.9.3c.15,0,.25.27.4.38,2.52,1.84,3.6,3.76,1.63,6.92a4.19,4.19,0,0,0,2.77,6.11c3.14.81,3.8,2.5,3.56,5.42-.14,1.67-.47,2.47-2.16,3-4.6,1.45-5.69,4-3.52,8.23.83,1.61.77,2.66-.65,3.79C319.37,107.49,318.93,109.27,317.59,109.51Z"/><path class="cls-2" d="M294.72,90.65a8.51,8.51,0,1,0,17,.17,8.51,8.51,0,1,0-17-.17Z"/><path class="cls-9" d="M337,123c-1.57,1.19-3.55.45-4.26-2-.48-1.61-2.13-1.83-3.6-1a1.85,1.85,0,0,1-2.58-.44c-.84-.85-1.21-1.51-.62-2.72.94-1.92.37-3.25-1.65-3.93a1.87,1.87,0,0,1-1.46-2.15c0-1.2.23-1.9,1.5-2.34,2-.7,2.53-2,1.58-4a1.94,1.94,0,0,1,.54-2.58c.85-.87,1.56-1.19,2.72-.54a2.48,2.48,0,0,0,3.67-1c1.33-2.24,1.9-3.72,4.16-2,.46.36.37,1.14.63,1.7a2.52,2.52,0,0,0,3.38,1.49c1-.34,1.79-1,3,.11s1,2.08.43,3.4a2.08,2.08,0,0,0,1.12,3c2.56.61,3.27,2.71,2.07,4.29-.28.37-.94.35-1.44.56-1.84.8-2.43,2.09-1.51,3.9a2,2,0,0,1-.51,2.73,2,2,0,0,1-2.73.45c-1.8-.89-3.08-.3-3.86,1.58C337.32,122,337.4,122.69,337,123Z"/><path class="cls-2" d="M335.34,115.21a4.37,4.37,0,0,0,4.43-4.52,4.46,4.46,0,0,0-4.46-4.53,4.58,4.58,0,0,0-4.56,4.66A4.46,4.46,0,0,0,335.34,115.21Z"/><path class="cls-9" d="M315.73,129.59c-.36-.11-.43-.57-.65-.83a1.51,1.51,0,0,0-2.28-.23c-.85.72-.83.69-1.83.24a.91.91,0,0,1-.63-1.17c.22-1.28-.4-2-1.72-2-.27,0-.42.09-.69-.14a1.29,1.29,0,0,1-.3-.4,1.39,1.39,0,0,1,.53-2.14,1.4,1.4,0,0,0,.08-2.14c-.73-.84-.7-.83-.26-1.82a.91.91,0,0,1,1.17-.63c1.35.23,2-.36,2-1.73,0-.6.15-.95.77-1a.88.88,0,0,0,.17-.05c.94-.31.94-.31,1.57.47a1.52,1.52,0,0,0,2.4.17c.25-.22.6-.6.8-.54a4.09,4.09,0,0,1,1.52.79c.16.13,0,.65,0,1a1.52,1.52,0,0,0,1.56,1.79,2.51,2.51,0,0,1,.63,0,1.63,1.63,0,0,1,.48.35s0,.11.06.16c.44.86.47,1.54-.52,2.14a1.3,1.3,0,0,0-.09,2.07,1.32,1.32,0,0,1,.23,2c-.27.44-.47.62-1,.53-1.47-.24-2.13.31-2.12,1.78,0,.56-.16.84-.71,1C316.51,129.28,316.14,129.71,315.73,129.59Z"/><path class="cls-2" d="M312.06,121.19a2.63,2.63,0,1,0,4.68,2.42,2.63,2.63,0,1,0-4.68-2.42Z"/><text class="cls-25" transform="translate(264 46.54)">HABILI<tspan class="cls-21" x="52.94" y="0">D</tspan><tspan x="64.03" y="0">A</tspan><tspan class="cls-26" x="75.98" y="0">D</tspan><tspan x="87.59" y="0">ES</tspan></text><text class="cls-25" transform="translate(386 46.54)">M<tspan class="cls-26" x="14.87" y="0">O</tspan><tspan x="27.11" y="0">TI</tspan><tspan class="cls-27" x="41.43" y="0">V</tspan><tspan class="cls-21" x="50.1" y="0">A</tspan><tspan x="61.32" y="0">CIÓN</tspan></text><text class="cls-25" transform="translate(114 46.54)"><tspan class="cls-28">C</tspan><tspan x="11.34" y="0">ONOCIMIEN</tspan><tspan class="cls-29" x="106.07" y="0">T</tspan><tspan x="114.7" y="0">OS</tspan></text><text class="cls-25" transform="translate(121 310.54)"><tspan class="cls-28">C</tspan><tspan x="11.34" y="0">OLABOR</tspan><tspan class="cls-30" x="79.55" y="0">A</tspan><tspan x="90.76" y="0">C</tspan><tspan class="cls-28" x="102.52" y="0">I</tspan><tspan x="106.95" y="0">ON</tspan></text><text class="cls-25" transform="translate(357 309.54)"><tspan class="cls-28">C</tspan><tspan x="11.34" y="0">OMUNI</tspan><tspan class="cls-31" x="67.14" y="0">C</tspan><tspan class="cls-21" x="78.48" y="0">A</tspan><tspan x="89.69" y="0">CIÓN</tspan></text></svg>